{"title":"The Jungle Book 2016 HDCAM x264-Sp1D3y","uid":14258241,"size":1392875709,"categoryP":"video","categoryS":"movies","magnet":"?xt=urn:btih:0813571b8ff0f1d84f29ae244c03d61528c3fbb8&amp;dn=+The+Jungle+Book+2016+HDCAM+x264-Sp1D3y&amp;tr=udp%3A%2F%2Ftracker.leechers-paradise.org%3A6969&amp;tr=udp%3A%2F%2Fzer0day.ch%3A1337&amp;tr=udp%3A%2F%2Fopen.demonii.com%3A1337&amp;tr=udp%3A%2F%2Ftracker.coppersurfer.tk%3A6969&amp;tr=udp%3A%2F%2Fexodus.desync.com%3A6969","seeders":3,"leechers":3,"uploader":"makintos13","files":2,"time":1460219803,"description":"The Jungle Book 2016 HDCAM x264-Sp1D3y\r\n\r\nScreens:\r\n \nhttp://imgmak.com/KLp\r\n \nhttp://imgmak.com/KLR\r\n \nhttp://imgmak.com/KLb\r\n \nhttp://imgmak.com/KLx\r\n \nhttp://imgmak.com/KLz\r\n\r\n\r\nFormat                      : Matroska\r\n\r\nFile size                   : 1.28 GiB\r\n\r\nDuration                    : 1h 29mn\r\n\r\nOverall bit rate            : 2 047 Kbps\r\n\r\n\r\n\r\nVideo\r\n\r\nID                          : 1\r\n\r\nFormat                      : AVC\r\n\r\nFormat/Info                 : Advanced Video Codec\r\n\r\nFormat profile              :   \r\n\r\nFormat settings, CABAC      : Yes\r\n\r\nFormat settings, ReFrames   : 4 frames\r\n\r\nCodec ID                    : V_MPEG4/ISO/AVC\r\n\r\nDuration                    : 1h 29mn\r\n\r\nBit rate                    : 1 850 Kbps\r\n\r\nWidth                       : 720 pixels\r\n\r\nHeight                      : 336 pixels\r\n\r\nDisplay aspect ratio        : 2.143\r\n\r\nFrame rate mode             : Constant\r\n\r\nFrame rate                  : 29.970 (30000/1001) fps\r\n\r\nColor space                 : YUV\r\n\r\nChroma subsampling          : 4:2:0\r\n\r\nBit depth                   : 8 bits\r\n\r\nScan type                   : Progressive\r\n\r\nBits/(Pixel*Frame)          : 0.255\r\n\r\nStream size                 : 1.16 GiB (91%)\r\n\r\nID                          : 2\r\n\r\nFormat                      : AC-3\r\n\r\nFormat/Info                 : Audio Coding 3\r\n\r\nMode extension              : CM (complete main)\r\n\r\nFormat settings, Endianness : Big\r\n\r\nCodec ID                    : A_AC3\r\n\r\nDuration                    : 1h 29mn\r\n\r\nBit rate mode               : Constant\r\n\r\nBit rate                    : 192 Kbps\r\n\r\nChannel(s)                  : 2 channels\r\n\r\nChannel positions           : Front: L R\r\n\r\nSampling rate               : 44.1 KHz\r\n\r\nFrame rate                  : 28.711 fps (1536 spf)\r\n\r\nCompression mode            : Lossy\r\n\r\nStream size                 : 123 MiB (9%)\r\n\r\nDefault                     : Yes\r\n\r\nForced                      : No","torrent":{"xt":"urn:btih:0813571b8ff0f1d84f29ae244c03d61528c3fbb8","amp;dn":"+The+Jungle+Book+2016+HDCAM+x264-Sp1D3y","amp;tr":["udp%3A%2F%2Ftracker.leechers-paradise.org%3A6969","udp%3A%2F%2Fzer0day.ch%3A1337","udp%3A%2F%2Fopen.demonii.com%3A1337","udp%3A%2F%2Ftracker.coppersurfer.tk%3A6969","udp%3A%2F%2Fexodus.desync.com%3A6969"],"infoHash":"0813571b8ff0f1d84f29ae244c03d61528c3fbb8","infoHashBuffer":{"type":"Buffer","data":[8,19,87,27,143,240,241,216,79,41,174,36,76,3,214,21,40,195,251,184]},"announce":[],"urlList":[]}}